:FULLY-SPECIFIED
:FORCE-ALL-JOINTS-BE-3DOF
:DEGREES
612
root -4.21581 15.7489 -40.4831 356.522 -74.1774 369.801
lfemur -6.23967 12.6473 -15.5261
ltibia 43.3321 0 0
lfoot -21.836 30.0217 0
ltoes -23.7806 0 0
rfemur -43.3481 -28.752 16.5241
rtibia 68.8898 0 0
rfoot -13.8929 -14.6064 0
rtoes -6.9363 0 0
lowerback 11.4786 4.94912 -6.68732
upperback -2.48321 5.4886 -1.22985
thorax -9.65211 2.96608 1.32279
lowerneck 1.83276 -10.9452 -12.0587
upperneck -0.807153 -14.9039 11.6461
head 1.2517 -7.49762 5.08351
lclavicle -5.26695e-14 1.44569e-15 0
lhumerus -71.7485 -24.8144 105.994
lradius 102.499 0 0
lwrist 56.1633 0 0
lhand 6.50678 54.8317 0
lfingers 7.12502 0 0
lthumb 34.4199 83.5936 0
rclavicle 3.17139e-15 -7.21507e-16 0
rhumerus 25.6782 20.7899 -47.8881
rradius 99.6005 0 0
rwrist -28.2839 0 0
rhand -19.209 -30.8897 0
rfingers 7.12502 0 0
rthumb 9.69046 -62.5855 0
613
root -4.20479 15.7362 -40.4525 356.531 -74.5146 370.025
lfemur -6.44378 12.7532 -15.6891
ltibia 43.6517 0 0
lfoot -21.9493 30.3131 0
ltoes -23.881 0 0
rfemur -42.5842 -29.4137 17.1238
rtibia 69.9137 0 0
rfoot -14.7951 -15.9906 0
rtoes -7.44245 0 0
lowerback 11.2036 4.95788 -6.76689
upperback -2.60352 5.50125 -1.29482
thorax -9.62795 2.97741 1.30997
lowerneck 1.68853 -10.8974 -12.0761
upperneck -0.728978 -14.8313 11.6752
head 1.29304 -7.45737 5.08742
lclavicle -5.70464e-14 1.67289e-15 0
lhumerus -71.7897 -24.7738 106.019
lradius 102.507 0 0
lwrist 56.1723 0 0
lhand 5.26527 54.0294 0
lfingers 7.12502 0 0
lthumb 33.7039 83.1891 0
rclavicle 5.78086e-15 3.72457e-16 0
rhumerus 26.2177 19.1652 -47.919
rradius 98.0334 0 0
rwrist -29.1823 0 0
rhand -19.2735 -30.9 0
rfingers 7.12502 0 0
rthumb 7.94928 -63.1817 0
614
root -4.19727 15.7243 -40.4217 356.954 -74.8976 369.829
lfemur -6.65809 12.8644 -15.8602
ltibia 43.9291 0 0
lfoot -22.0523 30.5779 0
ltoes -23.9918 0 0
rfemur -41.836 -30.0617 17.7111
rtibia 70.8793 0 0
rfoot -15.6973 -17.3748 0
rtoes -7.9426 0 0
lowerback 10.9203 4.95912 -6.70357
upperback -2.71428 5.52852 -1.34016
thorax -9.576 2.98824 1.23842
lowerneck 1.54875 -10.8305 -12.0285
upperneck -0.703729 -14.7294 11.7148
head 1.31078 -7.40303 5.08919
lclavicle -6.03317e-14 1.84342e-15 0
lhumerus -71.8346 -24.7297 106.047
lradius 102.515 0 0
lwrist 56.1803 0 0
lhand 3.96342 53.188 0
lfingers 7.12502 0 0
lthumb 32.8241 82.692 0
rclavicle 8.49232e-15 1.50918e-15 0
rhumerus 26.6944 17.7295 -47.9462
rradius 96.4663 0 0
rwrist -30.0512 0 0
rhand -19.4583 -30.9297 0
rfingers 7.12502 0 0
rthumb 6.30241 -63.7456 0
615
root -4.19428 15.712 -40.389 356.935 -75.2845 370.058
lfemur -6.87968 12.9794 -16.0371
ltibia 44.1571 0 0
lfoot -22.1435 30.8124 0
ltoes -24.1115 0 0
rfemur -41.1115 -30.6892 18.2798
rtibia 71.775 0 0
rfoot -16.5846 -18.7362 0
rtoes -8.43074 0 0
lowerback 10.6208 4.94859 -6.60552
upperback -2.7857 5.53798 -1.47669
thorax -9.45602 2.9832 1.05892
lowerneck 1.37787 -10.7473 -11.9069
upperneck -0.668155 -14.6023 11.7377
head 1.32697 -7.33533 5.0749
lclavicle -6.23971e-14 1.95063e-15 0
lhumerus -71.8823 -24.6827 106.077
lradius 102.523 0 0
lwrist 56.1873 0 0
lhand 2.61464 52.3164 0
lfingers 7.12502 0 0
lthumb 31.7986 82.1127 0
rclavicle 1.12803e-14 2.67798e-15 0
rhumerus 27.101 16.5049 -47.9695
rradius 94.9131 0 0
rwrist -30.8788 0 0
rhand -19.7498 -30.9764 0
rfingers 7.12502 0 0
rthumb 4.77079 -64.27 0
616
root -4.19404 15.6951 -40.3571 357.301 -75.7136 369.916
lfemur -7.10564 13.0966 -16.2175
ltibia 44.3287 0 0
lfoot -22.2214 31.0128 0
ltoes -24.2387 0 0
rfemur -40.4186 -31.2894 18.8238
rtibia 72.5891 0 0
rfoot -17.4419 -20.0516 0
rtoes -8.90088 0 0
lowerback 10.3128 4.98507 -6.69108
upperback -2.87916 5.60538 -1.40172
thorax -9.40235 3.02593 1.1922
lowerneck 1.21875 -10.6936 -11.8647
upperneck -0.652777 -14.5121 11.6607
head 1.3375 -7.28534 5.04183
lclavicle -6.31141e-14 1.98785e-15 0
lhumerus -71.9322 -24.6336 106.108
lradius 102.531 0 0
lwrist 56.193 0 0
lhand 1.23233 51.4231 0
lfingers 7.12502 0 0
lthumb 30.6458 81.4614 0
rclavicle 1.41192e-14 3.86815e-15 0
rhumerus 27.4301 15.5138 -47.9883
rradius 93.3878 0 0
rwrist -31.6533 0 0
rhand -20.1349 -31.0381 0
rfingers 7.12502 0 0
rthumb 3.3754 -64.7478 0
617
root -4.19795 15.6825 -40.3266 357.529 -76.0978 369.917
lfemur -7.33305 13.2146 -16.3991
ltibia 44.4368 0 0
lfoot -22.2845 31.1752 0
ltoes -24.3722 0 0
rfemur -39.7651 -31.8554 19.3368
rtibia 73.3099 0 0
rfoot -18.2544 -21.2982 0
rtoes -9.34701 0 0
lowerback 9.99877 4.97556 -6.77873
upperback -2.95664 5.60866 -1.36181
thorax -9.31875 3.03573 1.30412
lowerneck 0.889589 -10.7101 -11.8419
upperneck -0.436939 -14.5172 11.6988
head 1.45608 -7.27783 5.02244
lclavicle -6.26039e-14 1.99339e-15 0
lhumerus -71.9836 -24.583 106.14
lradius 102.539 0 0
lwrist 56.1972 0 0
lhand -0.170087 50.5167 0
lfingers 7.12502 0 0
lthumb 29.3837 80.7483 0
rclavicle 1.69837e-14 5.06902e-15 0
rhumerus 27.6743 14.7783 -48.0023
rradius 91.9044 0 0
rwrist -32.3628 0 0
rhand -20.6 -31.1127 0
rfingers 7.12502 0 0
rthumb 2.13719 -65.1717 0
618
root -4.20731 15.6701 -40.2972 357.751 -76.5503 369.895
lfemur -7.55901 13.3318 -16.5795
ltibia 44.4744 0 0
lfoot -22.3315 31.296 0
ltoes -24.5104 0 0
rfemur -39.1589 -32.3804 19.8127
rtibia 73.9258 0 0
rfoot -19.0071 -22.453 0
rtoes -9.76314 0 0
lowerback 9.6788 4.99421 -6.8081
upperback -3.02658 5.65837 -1.3254
thorax -9.22058 3.06421 1.37236
lowerneck 0.976048 -10.5158 -11.7402
upperneck -0.673557 -14.2439 11.5936
head 1.32543 -7.14479 5.00723
lclavicle -6.11316e-14 2.00936e-15 0
lhumerus -72.0356 -24.5317 106.172
lradius 102.547 0 0
lwrist 56.1999 0 0
lhand -1.57921 49.6061 0
lfingers 7.12502 0 0
lthumb 28.0306 79.9839 0
rclavicle 1.98482e-14 6.26989e-15 0
rhumerus 27.8262 14.3208 -48.011
rradius 90.4767 0 0
rwrist -32.9955 0 0
rhand -21.132 -31.198 0
rfingers 7.12502 0 0
rthumb 1.07711 -65.5347 0
